<svg width="512" height="512" viewBox="0 0 24 24" xmlns="http://www.w3.org/2000/svg">
  <path fill="#2563eb" d="M12 2c.714 0 1.37.106 2.033.318c.706.224 1.323.546 1.849.966l-1.254 1.234c-.266-.24-.736-.484-1.41-.727c-.609-.217-1.178-.32-1.704-.32c-1.252 0-2.207.376-2.863 1.128c-.657.751-.985 1.72-.985 2.905c0 .741.15 1.42.451 2.035c.301.609.701 1.08 1.202 1.413c.503.326 1.07.489 1.704.489c.584 0 1.124-.093 1.622-.28c.503-.187.945-.44 1.326-.759l1.14 1.374a6.35 6.35 0 0 1-1.871.966C11.632 12.914 10.966 13 10.294 13c-1.054 0-2.01-.236-2.863-.706c-.856-.471-1.53-1.122-2.024-1.954c-.495-.839-.742-1.779-.742-2.822c0-1.037.247-1.978.742-2.822c.495-.84 1.168-1.49 2.024-1.954C8.284 2.236 9.24 2 10.294 2zm4.144 3.494c-.434-.245-.659-.52-.675-.826h-1.027c.13.552.452 1 .965 1.345zm.87-.826h-1.027a.943.943 0 0 1-.257.511c-.06-.04-.117-.082-.172-.126c-.12-.091-.207-.18-.268-.263a.838.838 0 0 1-.156-.306h-1.027c.024.256.113.49.268.703c-.24.046-.48.095-.723.147c.209.289.497.545.864.77l-.594.452c-.491-.306-.884-.666-1.177-1.08c-.293-.415-.44-.85-.44-1.304h6.058c0 .43-.145.851-.436 1.263c-.286.407-.67.767-1.154 1.08l-.594-.438c.366-.236.663-.507.89-.811c-.246-.052-.497-.101-.753-.147a1.767 1.767 0 0 0 .268-.703z"/>
  <path fill="#2563eb" d="M19.001 4a1 1 0 0 1 .993.883L20 5v17.171a.5.5 0 0 1-.724.447l-.06-.032L17 21.499l-2.216 1.087a.5.5 0 0 1-.423.022l-.075-.036L12 21.499l-2.286 1.073a.5.5 0 0 1-.4.034l-.099-.047L7 21.499l-2.216 1.087a.5.5 0 0 1-.765-.405L4 22.15V5a1 1 0 0 1 .883-.993L5 4zM18 6H6v14.927l1.216-.596a.5.5 0 0 1 .395-.024l.075.036L10 21.426l2.286-1.073a.5.5 0 0 1 .4-.034l.099.047L15 21.449l1.784-.875a.5.5 0 0 1 .372-.041l.062.028L18 20.926zM8 10a1 1 0 0 1 0 2H7a1 1 0 0 1 0-2zm8-2a1 1 0 0 1 0 2H7a1 1 0 0 1 0-2z"/>
</svg>